<svg width="833" height="732" viewBox="0 0 833 732" fill="none" xmlns="http://www.w3.org/2000/svg">
<path d="M61.6022 226.803C30.4262 285.145 14.1195 350.276 14.1262 416.426L14.1262 416.435C14.0986 469.27 24.5065 521.59 44.7524 570.393C64.9994 619.198 94.6869 663.523 132.11 700.824L141.921 710.602L151.715 700.808L171.333 681.19L190.95 661.572L200.765 651.757L190.945 641.947C146.286 597.333 115.863 540.476 103.524 478.568C91.1858 416.66 97.4862 352.483 121.629 294.156C145.771 235.83 186.671 185.974 239.153 150.897C291.636 115.82 353.343 97.0971 416.469 97.0971C479.594 97.0971 541.301 115.82 593.784 150.897C646.266 185.974 687.166 235.83 711.308 294.156C735.451 352.483 741.751 416.66 729.413 478.568C717.074 540.476 686.651 597.333 641.992 641.947L639.06 644.876L638.215 648.932L630.418 686.36L627.071 702.422L643.467 703.053L690.5 704.861L696.557 705.094L700.843 700.807C747.618 654.027 782.133 596.433 801.332 533.127C820.53 469.822 823.82 402.758 810.909 337.877C797.998 272.996 769.285 212.301 727.314 161.168C685.342 110.034 631.408 70.0418 570.288 44.7319C509.169 19.4221 442.75 9.5764 376.916 16.0672C311.083 22.558 247.866 45.1846 192.865 81.9432C137.865 118.702 92.7797 168.457 61.6022 226.803Z" fill="black" stroke="black" stroke-width="27.7477"/>
<path d="M582.951 416.447C582.951 508.395 508.413 582.934 416.465 582.934C324.517 582.934 249.979 508.395 249.979 416.447C249.979 324.499 324.517 249.961 416.465 249.961C508.413 249.961 582.951 324.499 582.951 416.447Z" fill="black"/>
<path d="M360.97 527.438H471.961V693.925H360.97V527.438Z" fill="black"/>
<path d="M601.189 732.001L622.981 590.979L751.027 715.352L601.189 732.001Z" fill="black"/>
</svg>
