<svg width="591" height="154" viewBox="0 0 591 154" fill="none" xmlns="http://www.w3.org/2000/svg">
<path d="M29.9492 149.502L27.8868 147.446C20.0194 139.604 13.7783 130.286 9.5218 120.026C5.26541 109.766 3.07739 98.7662 3.08335 87.6585L29.9492 149.502ZM29.9492 149.502L32.0082 147.443M29.9492 149.502L32.0082 147.443M32.0082 147.443L36.1324 143.318L40.2566 139.194L42.32 137.131M32.0082 147.443L42.32 137.131M42.32 137.131L40.2555 135.068M42.32 137.131L40.2555 135.068M40.2555 135.068C30.867 125.689 24.4712 113.736 21.8773 100.722C19.2834 87.7069 20.6079 74.2151 25.6833 61.9533C30.7587 49.6915 39.3569 39.2105 50.3901 31.8363C61.4234 24.4621 74.396 20.5261 87.6667 20.5261C100.937 20.5261 113.91 24.4621 124.943 31.8363C135.976 39.2105 144.575 49.6915 149.65 61.9533C154.725 74.2151 156.05 87.7069 153.456 100.722C150.862 113.736 144.466 125.689 135.078 135.068L134.462 135.684M40.2555 135.068L134.462 135.684M134.462 135.684L134.284 136.537M134.462 135.684L134.284 136.537M134.284 136.537L132.645 144.405L131.941 147.782L135.388 147.915L145.275 148.295L146.549 148.344M134.284 136.537L146.549 148.344M146.549 148.344L147.45 147.442M146.549 148.344L147.45 147.442M147.45 147.442C157.283 137.608 164.539 125.5 168.575 112.192M147.45 147.442L168.575 112.192M168.575 112.192C172.611 98.8829 173.303 84.7843 170.589 71.1446M168.575 112.192L170.589 71.1446M170.589 71.1446C167.875 57.5049 161.838 44.7451 153.015 33.9954M170.589 71.1446L153.015 33.9954M153.015 33.9954C144.191 23.2458 132.853 14.8383 120.004 9.51751M153.015 33.9954L120.004 9.51751M120.004 9.51751C107.155 4.19668 93.1918 2.12686 79.3517 3.4914M120.004 9.51751L79.3517 3.4914M79.3517 3.4914C65.5117 4.85595 52.2218 9.61267 40.6592 17.3403M79.3517 3.4914L40.6592 17.3403M40.6592 17.3403C29.0967 25.068 19.6185 35.528 13.0641 47.7938M40.6592 17.3403L13.0641 47.7938M13.0641 47.7938C6.51006 60.059 3.08193 73.7513 3.08335 87.6577L13.0641 47.7938Z" fill="black" stroke="black" stroke-width="5.83333"/>
<path d="M122.666 87.6621C122.666 106.992 106.996 122.662 87.666 122.662C68.3361 122.662 52.666 106.992 52.666 87.6621C52.666 68.3321 68.3361 52.6621 87.666 52.6621C106.996 52.6621 122.666 68.3321 122.666 87.6621Z" fill="black"/>
<path d="M75.9994 110.995H99.3327V145.995H75.9994V110.995Z" fill="black"/>
<path d="M126.5 154L131.081 124.353L158 150.5L126.5 154Z" fill="black"/>
<mask id="path-3-outside-1_58_75" maskUnits="userSpaceOnUse" x="202.334" y="27.3291" width="389" height="120" fill="black">
<rect fill="white" x="202.334" y="27.3291" width="389" height="120"/>
<path d="M204.334 144.287V32.4361H255.037C263.226 32.4361 270.364 33.8342 276.453 36.6305C282.541 39.3232 287.265 43.1551 290.624 48.1263C293.984 53.0974 295.663 58.8971 295.663 65.5253C295.663 72.0499 293.984 77.7978 290.624 82.769C287.265 87.6365 282.541 91.4685 276.453 94.2647C270.364 96.9574 263.226 98.3038 255.037 98.3038H223.545V80.7494H254.408C260.181 80.7494 264.59 79.4549 267.635 76.8657C270.784 74.173 272.359 70.4446 272.359 65.6806C272.359 60.813 270.836 57.1365 267.792 54.6509C264.748 52.0617 260.286 50.7672 254.408 50.7672H228.583V144.287H204.334ZM268.264 144.287L222.757 86.1866H248.424L301.017 144.287H268.264Z"/>
<path d="M340.02 145.84C331.097 145.84 323.329 144.132 316.715 140.714C310.102 137.193 304.958 132.325 301.284 126.111C297.715 119.897 295.93 112.751 295.93 104.673C295.93 96.4914 297.715 89.3454 301.284 83.235C304.958 77.0211 310.049 72.2053 316.558 68.7876C323.067 65.2664 330.625 63.5057 339.233 63.5057C347.526 63.5057 354.717 65.1628 360.805 68.4769C366.894 71.791 371.618 76.3997 374.977 82.3029C378.336 88.2062 380.016 95.145 380.016 103.12C380.016 104.777 379.964 106.33 379.859 107.78C379.754 109.126 379.596 110.421 379.386 111.664H309.787V96.2843H360.333L356.239 99.0805C356.239 92.6595 354.664 87.9472 351.515 84.9438C348.471 81.8369 344.272 80.2834 338.918 80.2834C332.724 80.2834 327.895 82.3547 324.431 86.4973C321.072 90.6399 319.392 96.8539 319.392 105.139C319.392 113.217 321.072 119.224 324.431 123.16C327.895 127.095 333.039 129.063 339.863 129.063C343.642 129.063 346.896 128.441 349.625 127.199C352.355 125.956 354.402 123.936 355.767 121.14H377.969C375.345 128.804 370.831 134.862 364.427 139.316C358.129 143.666 349.993 145.84 340.02 145.84Z"/>
<path d="M387.924 144.287V32.4361H411.543V144.287H387.924Z"/>
<path d="M425.641 144.287V65.0592H449.261V144.287H425.641ZM424.854 54.4955V29.3291H450.048V54.4955H424.854Z"/>
<path d="M495.335 145.84C483.578 145.84 474.235 143.51 467.307 138.85C460.378 134.189 456.599 127.768 455.969 119.587H477.069C477.594 123.108 479.379 125.8 482.423 127.665C485.572 129.425 489.876 130.306 495.335 130.306C500.269 130.306 503.838 129.632 506.043 128.286C508.352 126.836 509.507 124.817 509.507 122.227C509.507 120.26 508.825 118.758 507.46 117.722C506.2 116.583 503.838 115.651 500.374 114.926L487.462 112.285C477.909 110.317 470.876 107.366 466.362 103.43C461.848 99.3912 459.591 94.213 459.591 87.8955C459.591 80.2316 462.583 74.2766 468.566 70.0304C474.55 65.6806 482.896 63.5057 493.603 63.5057C504.206 63.5057 512.656 65.6288 518.955 69.875C525.253 74.0177 528.718 79.8173 529.348 87.2741H508.247C507.827 84.5814 506.358 82.5618 503.838 81.2155C501.319 79.7656 497.75 79.0406 493.131 79.0406C488.932 79.0406 485.782 79.662 483.683 80.9048C481.688 82.044 480.691 83.701 480.691 85.8759C480.691 87.7401 481.531 89.2418 483.21 90.381C484.89 91.4167 487.672 92.3488 491.556 93.1773L506.043 96.1289C514.126 97.786 520.215 100.893 524.309 105.45C528.508 109.903 530.607 115.185 530.607 121.295C530.607 129.063 527.51 135.121 521.317 139.471C515.228 143.717 506.568 145.84 495.335 145.84Z"/>
<path d="M575.32 145.996C565.032 145.996 557.369 143.562 552.33 138.694C547.396 133.723 544.929 126.215 544.929 116.169V47.3495L568.549 38.65V116.946C568.549 120.467 569.546 123.108 571.541 124.868C573.535 126.629 576.632 127.509 580.831 127.509C582.406 127.509 583.875 127.354 585.24 127.043C586.605 126.733 587.969 126.37 589.334 125.956V143.666C587.969 144.39 586.027 144.96 583.508 145.374C581.093 145.789 578.364 145.996 575.32 145.996ZM529.97 82.769V65.0592H589.334V82.769H529.97Z"/>
</mask>
<path d="M204.334 144.287V32.4361H255.037C263.226 32.4361 270.364 33.8342 276.453 36.6305C282.541 39.3232 287.265 43.1551 290.624 48.1263C293.984 53.0974 295.663 58.8971 295.663 65.5253C295.663 72.0499 293.984 77.7978 290.624 82.769C287.265 87.6365 282.541 91.4685 276.453 94.2647C270.364 96.9574 263.226 98.3038 255.037 98.3038H223.545V80.7494H254.408C260.181 80.7494 264.59 79.4549 267.635 76.8657C270.784 74.173 272.359 70.4446 272.359 65.6806C272.359 60.813 270.836 57.1365 267.792 54.6509C264.748 52.0617 260.286 50.7672 254.408 50.7672H228.583V144.287H204.334ZM268.264 144.287L222.757 86.1866H248.424L301.017 144.287H268.264Z" fill="black"/>
<path d="M340.02 145.84C331.097 145.84 323.329 144.132 316.715 140.714C310.102 137.193 304.958 132.325 301.284 126.111C297.715 119.897 295.93 112.751 295.93 104.673C295.93 96.4914 297.715 89.3454 301.284 83.235C304.958 77.0211 310.049 72.2053 316.558 68.7876C323.067 65.2664 330.625 63.5057 339.233 63.5057C347.526 63.5057 354.717 65.1628 360.805 68.4769C366.894 71.791 371.618 76.3997 374.977 82.3029C378.336 88.2062 380.016 95.145 380.016 103.12C380.016 104.777 379.964 106.33 379.859 107.78C379.754 109.126 379.596 110.421 379.386 111.664H309.787V96.2843H360.333L356.239 99.0805C356.239 92.6595 354.664 87.9472 351.515 84.9438C348.471 81.8369 344.272 80.2834 338.918 80.2834C332.724 80.2834 327.895 82.3547 324.431 86.4973C321.072 90.6399 319.392 96.8539 319.392 105.139C319.392 113.217 321.072 119.224 324.431 123.16C327.895 127.095 333.039 129.063 339.863 129.063C343.642 129.063 346.896 128.441 349.625 127.199C352.355 125.956 354.402 123.936 355.767 121.14H377.969C375.345 128.804 370.831 134.862 364.427 139.316C358.129 143.666 349.993 145.84 340.02 145.84Z" fill="black"/>
<path d="M387.924 144.287V32.4361H411.543V144.287H387.924Z" fill="black"/>
<path d="M425.641 144.287V65.0592H449.261V144.287H425.641ZM424.854 54.4955V29.3291H450.048V54.4955H424.854Z" fill="black"/>
<path d="M495.335 145.84C483.578 145.84 474.235 143.51 467.307 138.85C460.378 134.189 456.599 127.768 455.969 119.587H477.069C477.594 123.108 479.379 125.8 482.423 127.665C485.572 129.425 489.876 130.306 495.335 130.306C500.269 130.306 503.838 129.632 506.043 128.286C508.352 126.836 509.507 124.817 509.507 122.227C509.507 120.26 508.825 118.758 507.46 117.722C506.2 116.583 503.838 115.651 500.374 114.926L487.462 112.285C477.909 110.317 470.876 107.366 466.362 103.43C461.848 99.3912 459.591 94.213 459.591 87.8955C459.591 80.2316 462.583 74.2766 468.566 70.0304C474.55 65.6806 482.896 63.5057 493.603 63.5057C504.206 63.5057 512.656 65.6288 518.955 69.875C525.253 74.0177 528.718 79.8173 529.348 87.2741H508.247C507.827 84.5814 506.358 82.5618 503.838 81.2155C501.319 79.7656 497.75 79.0406 493.131 79.0406C488.932 79.0406 485.782 79.662 483.683 80.9048C481.688 82.044 480.691 83.701 480.691 85.8759C480.691 87.7401 481.531 89.2418 483.21 90.381C484.89 91.4167 487.672 92.3488 491.556 93.1773L506.043 96.1289C514.126 97.786 520.215 100.893 524.309 105.45C528.508 109.903 530.607 115.185 530.607 121.295C530.607 129.063 527.51 135.121 521.317 139.471C515.228 143.717 506.568 145.84 495.335 145.84Z" fill="black"/>
<path d="M575.32 145.996C565.032 145.996 557.369 143.562 552.33 138.694C547.396 133.723 544.929 126.215 544.929 116.169V47.3495L568.549 38.65V116.946C568.549 120.467 569.546 123.108 571.541 124.868C573.535 126.629 576.632 127.509 580.831 127.509C582.406 127.509 583.875 127.354 585.24 127.043C586.605 126.733 587.969 126.37 589.334 125.956V143.666C587.969 144.39 586.027 144.96 583.508 145.374C581.093 145.789 578.364 145.996 575.32 145.996ZM529.97 82.769V65.0592H589.334V82.769H529.97Z" fill="black"/>
<path d="M204.334 144.287V32.4361H255.037C263.226 32.4361 270.364 33.8342 276.453 36.6305C282.541 39.3232 287.265 43.1551 290.624 48.1263C293.984 53.0974 295.663 58.8971 295.663 65.5253C295.663 72.0499 293.984 77.7978 290.624 82.769C287.265 87.6365 282.541 91.4685 276.453 94.2647C270.364 96.9574 263.226 98.3038 255.037 98.3038H223.545V80.7494H254.408C260.181 80.7494 264.59 79.4549 267.635 76.8657C270.784 74.173 272.359 70.4446 272.359 65.6806C272.359 60.813 270.836 57.1365 267.792 54.6509C264.748 52.0617 260.286 50.7672 254.408 50.7672H228.583V144.287H204.334ZM268.264 144.287L222.757 86.1866H248.424L301.017 144.287H268.264Z" stroke="black" stroke-width="2.33333" mask="url(#path-3-outside-1_58_75)"/>
<path d="M340.02 145.84C331.097 145.84 323.329 144.132 316.715 140.714C310.102 137.193 304.958 132.325 301.284 126.111C297.715 119.897 295.93 112.751 295.93 104.673C295.93 96.4914 297.715 89.3454 301.284 83.235C304.958 77.0211 310.049 72.2053 316.558 68.7876C323.067 65.2664 330.625 63.5057 339.233 63.5057C347.526 63.5057 354.717 65.1628 360.805 68.4769C366.894 71.791 371.618 76.3997 374.977 82.3029C378.336 88.2062 380.016 95.145 380.016 103.12C380.016 104.777 379.964 106.33 379.859 107.78C379.754 109.126 379.596 110.421 379.386 111.664H309.787V96.2843H360.333L356.239 99.0805C356.239 92.6595 354.664 87.9472 351.515 84.9438C348.471 81.8369 344.272 80.2834 338.918 80.2834C332.724 80.2834 327.895 82.3547 324.431 86.4973C321.072 90.6399 319.392 96.8539 319.392 105.139C319.392 113.217 321.072 119.224 324.431 123.16C327.895 127.095 333.039 129.063 339.863 129.063C343.642 129.063 346.896 128.441 349.625 127.199C352.355 125.956 354.402 123.936 355.767 121.14H377.969C375.345 128.804 370.831 134.862 364.427 139.316C358.129 143.666 349.993 145.84 340.02 145.84Z" stroke="black" stroke-width="2.33333" mask="url(#path-3-outside-1_58_75)"/>
<path d="M387.924 144.287V32.4361H411.543V144.287H387.924Z" stroke="black" stroke-width="2.33333" mask="url(#path-3-outside-1_58_75)"/>
<path d="M425.641 144.287V65.0592H449.261V144.287H425.641ZM424.854 54.4955V29.3291H450.048V54.4955H424.854Z" stroke="black" stroke-width="2.33333" mask="url(#path-3-outside-1_58_75)"/>
<path d="M495.335 145.84C483.578 145.84 474.235 143.51 467.307 138.85C460.378 134.189 456.599 127.768 455.969 119.587H477.069C477.594 123.108 479.379 125.8 482.423 127.665C485.572 129.425 489.876 130.306 495.335 130.306C500.269 130.306 503.838 129.632 506.043 128.286C508.352 126.836 509.507 124.817 509.507 122.227C509.507 120.26 508.825 118.758 507.46 117.722C506.2 116.583 503.838 115.651 500.374 114.926L487.462 112.285C477.909 110.317 470.876 107.366 466.362 103.43C461.848 99.3912 459.591 94.213 459.591 87.8955C459.591 80.2316 462.583 74.2766 468.566 70.0304C474.55 65.6806 482.896 63.5057 493.603 63.5057C504.206 63.5057 512.656 65.6288 518.955 69.875C525.253 74.0177 528.718 79.8173 529.348 87.2741H508.247C507.827 84.5814 506.358 82.5618 503.838 81.2155C501.319 79.7656 497.75 79.0406 493.131 79.0406C488.932 79.0406 485.782 79.662 483.683 80.9048C481.688 82.044 480.691 83.701 480.691 85.8759C480.691 87.7401 481.531 89.2418 483.21 90.381C484.89 91.4167 487.672 92.3488 491.556 93.1773L506.043 96.1289C514.126 97.786 520.215 100.893 524.309 105.45C528.508 109.903 530.607 115.185 530.607 121.295C530.607 129.063 527.51 135.121 521.317 139.471C515.228 143.717 506.568 145.84 495.335 145.84Z" stroke="black" stroke-width="2.33333" mask="url(#path-3-outside-1_58_75)"/>
<path d="M575.32 145.996C565.032 145.996 557.369 143.562 552.33 138.694C547.396 133.723 544.929 126.215 544.929 116.169V47.3495L568.549 38.65V116.946C568.549 120.467 569.546 123.108 571.541 124.868C573.535 126.629 576.632 127.509 580.831 127.509C582.406 127.509 583.875 127.354 585.24 127.043C586.605 126.733 587.969 126.37 589.334 125.956V143.666C587.969 144.39 586.027 144.96 583.508 145.374C581.093 145.789 578.364 145.996 575.32 145.996ZM529.97 82.769V65.0592H589.334V82.769H529.97Z" stroke="black" stroke-width="2.33333" mask="url(#path-3-outside-1_58_75)"/>
</svg>
